<svg xmlns="http://www.w3.org/2000/svg" viewBox="0 0 200 200" fill="none">
  <rect width="200" height="200" rx="32" fill="#111120"/>
  <path d="M70 50h60c8 0 14 6 14 14v72c0 8-6 14-14 14H70c-8 0-14-6-14-14V64c0-8 6-14 14-14z" fill="#ff6900" opacity="0.2"/>
  <path d="M100 65c-6 0-12 4-12 12v12h-8l12 40h16l12-40h-8V77c0-8-6-12-12-12z" fill="#ff6900"/>
  <circle cx="100" cy="95" r="8" fill="#ff4500"/>
  <path d="M85 130l5 15h20l5-15H85z" fill="#ff6900" opacity="0.6"/>
  <text x="100" y="148" text-anchor="middle" fill="#ff6900" font-size="11" font-family="Arial" font-weight="bold">FREE FIRE</text>
</svg>
