<svg xmlns="http://www.w3.org/2000/svg" viewBox="0 0 200 200" fill="none">
  <rect width="200" height="200" rx="32" fill="#111120"/>
  <circle cx="100" cy="100" r="55" fill="none" stroke="#1b2838" stroke-width="20"/>
  <circle cx="100" cy="100" r="38" fill="#1b2838"/>
  <path d="M88 78c-6 10-10 22-10 35 0 26 18 48 42 54l8-16c-17-4-30-18-32-36l-8-37z" fill="#66c0f4"/>
  <circle cx="108" cy="74" r="6" fill="#66c0f4"/>
  <path d="M74 120c-8-4-14-12-16-22l-20-4c-4 18 4 36 18 46l18-20z" fill="#66c0f4" opacity="0.6"/>
  <path d="M120 115c-8 0-15-7-15-15s7-15 15-15 15 7 15 15-7 15-15 15z" fill="#66c0f4" opacity="0.3"/>
</svg>
